<svg width="200" height="232" viewBox="0 0 1228 232" fill="none" xmlns="http://www.w3.org/2000/svg">
    <g clip-path="url(#clip0)">
        <path d="M56.9976 51.2702H64.9796C81.7307 34.6269 104.777 24.2389 130.298 24.2389C155.818 24.2389 178.864 34.6269 195.616 51.2702H203.598C213.378 51.2702 222.597 53.3925 230.916 57.302C210.68 23.0102 173.243 0 130.298 0C87.3519 0 49.9149 23.0102 29.6787 57.302C37.998 53.3925 47.2167 51.2702 56.9976 51.2702Z" fill="#FFD42F"/>
        <path d="M203.598 180.73H198.539H195.616C178.864 197.373 155.818 207.649 130.298 207.649C104.777 207.649 81.7307 197.373 64.9796 180.73H56.9976C47.2167 180.73 37.998 178.607 29.6787 174.698C49.9149 208.99 87.4643 232 130.298 232C173.131 232 210.68 208.99 230.916 174.698C222.597 178.607 213.378 180.73 203.598 180.73Z" fill="#FFD42F"/>
        <path d="M203.599 59.3123H181.901V83.551H195.504C213.38 83.551 228.107 98.0719 228.107 115.944C228.107 133.704 213.492 148.337 195.504 148.337H175.493L154.919 126.667C167.623 121.305 176.505 108.795 176.505 94.3859C176.505 75.0619 160.653 59.3123 141.204 59.3123H116.808H56.9987C44.1824 59.3123 32.2655 63.6685 22.7095 70.8173L24.3959 70.929L25.8574 70.8173L27.3189 70.7056L28.7804 70.5939L30.1295 70.4822L31.4786 70.3705L32.8276 70.2588L34.1767 70.1471L35.5258 70.0354L36.8749 69.9237L38.224 69.812L39.573 69.7003L41.0345 69.5886H42.4961H43.9576H48.1172H50.3657L52.2769 69.7003L53.9632 69.812L55.5372 69.9237L57.1111 70.0354L58.685 70.1471L60.4838 70.2588L62.5074 70.3705L64.7559 70.4822L67.4541 70.5939L70.6019 70.7056L74.3119 70.8173L78.6964 70.929L83.8679 71.0407L89.8263 71.1524L92.8617 73.7215H85.8915L79.8206 74.3917L74.6492 74.5034L70.2646 74.6151L66.5547 74.8385L63.4068 75.0619L60.8211 75.2853L58.5726 75.5087L56.6614 75.7321L54.9751 75.9555H53.2887L51.7148 76.0672L50.0284 76.1789L48.1172 76.2906H45.9812L43.3954 76.1789L41.8215 76.0672L40.1352 75.9555H38.7861L37.3246 75.8438L35.9755 75.7321L34.6264 75.6204L33.2773 75.5087L31.9283 75.397L30.3543 75.2853L28.8928 75.1736L27.4313 75.0619L25.8574 74.9502L24.171 74.8385L22.4847 74.7268L20.6859 74.6151L18.6623 74.28C15.5144 77.1842 12.7038 80.3117 10.2305 83.8861L11.8045 84.2212H13.4908L15.0647 84.1095L16.5262 83.9978L19.2244 83.7744L21.5853 83.551L23.7213 83.3276L25.6325 83.1042L27.4313 82.8808L29.0052 82.6574L30.4667 82.434L31.9283 82.2106L33.3898 81.9872L34.8513 81.7638L36.4252 81.6521L38.1115 81.5404H39.0109H39.9103H40.9221H41.9339L44.8569 81.6521L47.2178 81.7638L49.129 81.8755L50.703 81.9872L52.1645 82.0989L53.626 82.3223L55.1999 82.5457L57.1111 82.7691L59.472 82.9925L62.5074 83.2159L66.3298 83.551L70.8268 83.7744L76.6728 84.1095L83.7554 84.4446L92.1872 84.7797L102.193 85.1148L103.542 87.5722H97.8084L92.5245 87.6839L87.6903 87.7956L83.3058 87.9073L79.2585 88.019L75.661 88.2424L72.4007 88.3541L69.4777 88.5775L66.7795 88.8009L64.4186 89.0243L62.2826 89.2477L60.4838 89.3594L58.7974 89.5828L57.3359 89.8062L56.2117 90.0296L55.0875 90.253L54.0757 90.4764L53.1763 90.6998L52.3893 90.9232L51.7148 91.1466L50.3657 91.4817L49.0166 91.8168L48.3421 91.9285L47.5551 92.0402L46.6557 92.1519L45.6439 92.2636L44.5197 92.3753L43.283 92.487H41.8215H40.2476H39.2358H38.224H37.3246L36.4252 92.3753L35.5258 92.2636L34.7388 92.1519L33.9519 92.0402L33.2773 91.9285L31.9283 91.7051L30.5792 91.4817L29.2301 91.2583L27.7686 90.9232L26.1947 90.5881L24.7332 90.253L22.7095 89.9179L20.4611 89.5828L19.112 89.4711L17.7629 89.3594L16.3014 89.2477L14.7275 89.136L13.0411 89.0243L11.2423 88.9126L9.33114 88.8009L7.30752 88.6892L7.08268 89.0243C7.08268 88.9126 6.97025 88.8009 6.97025 88.8009C2.69816 96.7316 0.112423 105.779 0 115.274C0.112423 114.603 0.112423 114.045 0.224847 113.375C0.449694 113.151 0.562117 113.04 0.786964 112.816H5.05905H9.21872L12.9287 112.705L16.0765 112.593L18.8871 112.481L21.3604 112.369L23.4965 112.146L25.4077 112.034L27.094 111.811L28.7804 111.699H30.3543L31.8158 111.588L33.3898 111.476L35.0761 111.364H36.8749H38.8985L41.0345 111.476L42.6085 111.588L43.7327 111.699L44.7445 111.811L45.7563 111.923L46.993 112.034L48.5669 112.258L50.703 112.481L53.626 112.705L57.4484 112.928L62.395 113.151L68.6907 113.375L76.5603 113.598L86.1163 113.822L97.5835 114.045L111.074 114.268V116.056L99.7196 116.167L89.7139 116.391L81.0573 116.614L73.7498 116.837L67.5665 117.061L62.395 117.284L58.1229 117.508L54.5254 117.731L51.6024 117.954L49.2415 118.178L47.3303 118.401L45.6439 118.625L44.1824 118.736L42.7209 118.848H41.147H39.3482L36.5376 118.736L34.0643 118.625L31.9283 118.513L30.0171 118.401L28.3307 118.178L26.7568 117.954L25.1828 117.731L23.6089 117.508L21.9226 117.284L20.0114 117.061L17.8753 116.837L15.402 116.726L12.479 116.614L9.1063 116.502H5.17148H1.68635C1.23666 116.279 0.786964 116.056 0.33727 115.832C0.33727 115.944 0.33727 116.056 0.33727 116.167C0.33727 125.55 2.69816 134.486 6.85783 142.305L10.6802 142.417L13.266 142.305L15.5144 142.193L17.6505 142.082L19.5617 141.97L21.248 141.858H22.9344L24.5083 141.746H26.0822H27.7686H29.4549H31.3661H38.224H41.147L44.6321 141.858L47.78 141.97L50.5905 142.082L53.2887 142.193L55.8744 142.305L58.4602 142.417L61.1583 142.528L64.0813 142.64L67.2292 142.752L70.7143 142.863L74.6492 142.975L79.1461 143.087H84.3176H90.1636H96.7966H104.217L103.43 144.651H95.5599H88.8145H83.0809L78.1343 144.762L73.9746 144.874L70.4895 144.986L67.4541 145.097L64.7559 145.209L62.395 145.321L60.1465 145.432L57.8981 145.544L55.4247 145.656L52.7266 145.768H49.5787H41.7091H38.3364H30.6916H28.7804H26.9816H25.4077H23.9462H22.4847H21.0232H19.5617H17.8753H16.0765L14.0529 145.656L11.8045 145.544L8.6566 145.879C11.0175 149.789 13.8281 153.363 17.0884 156.602L92.9742 157.273L91.7375 158.166L20.3486 159.507C30.3543 167.996 43.283 173.134 57.3359 173.134H117.033V83.6627H131.985C140.192 83.6627 146.937 90.3647 146.937 98.5187C146.937 106.673 140.192 113.375 131.985 113.375H125.24V124.21V129.571L166.274 172.687H168.635H198.877H203.936C235.302 172.687 260.935 147.22 260.935 116.056C260.935 84.8914 234.965 59.3123 203.599 59.3123ZM103.317 101.981L97.4711 102.093H92.1872L87.2406 102.205L82.7436 102.317L78.6964 102.428L74.9864 102.54L71.6137 102.652L68.5783 102.875L65.8801 103.098L63.5192 103.322L61.3832 103.545L59.472 103.769L57.7856 103.992H56.2117L54.8626 104.215L53.7384 104.439L52.7266 104.662L51.7148 104.774L50.8154 104.997L49.3539 105.332L47.8924 105.668L47.1054 105.779L46.3184 105.891L45.4191 106.003L44.5197 106.114L43.3954 106.226L42.2712 106.338H39.3482H37.8867L36.5376 106.114H35.301L34.1767 106.003L33.1649 105.891L32.2655 105.779L31.4786 105.668L30.6916 105.556L29.2301 105.332L27.881 105.109L26.5319 104.886L25.1828 104.662L23.7213 104.327L22.035 104.104L21.1356 103.88L20.0114 103.769L18.8871 103.657L17.6505 103.545L16.189 103.434L14.615 103.322L12.9287 103.21L11.0175 103.098H8.99387L6.85783 102.987L4.49694 102.875H2.36089C2.81059 101.423 3.14786 99.9708 3.48513 98.5187L6.07086 98.407L8.76903 98.2953L11.2423 98.1836L13.4908 98.0719L15.5144 97.9602L17.3132 97.8485L18.9996 97.7368L20.4611 97.6252L21.8101 97.5135L22.9344 97.4017L23.9462 97.29L24.8456 97.1784L26.4195 96.955L27.6562 96.7316L28.668 96.5082L29.5674 96.2848L30.5792 96.0614L31.7034 95.838L32.3779 95.7263L33.1649 95.6146L33.9519 95.5029H34.9637H35.9755H40.0227H41.147H42.1588L43.0582 95.6146H43.7327L44.4073 95.7263L44.9694 95.838L45.5315 95.9497L46.0936 96.0614L47.1054 96.2848L48.3421 96.5082L49.0166 96.6199L49.916 96.7316L50.8154 96.955L51.9396 97.0667L53.1763 97.29L54.6378 97.5135L56.3241 97.6252L58.2353 97.8485L60.4838 98.0719L62.9571 98.2953L65.7677 98.5187L68.9156 98.7421L72.4007 98.9655L76.3355 99.1889L80.6076 99.3006L85.3294 99.524L90.5009 99.6357L96.122 99.8591L102.193 99.9708L108.826 100.083L109.5 102.205L103.317 101.981ZM109.051 130.241L99.9444 130.353L91.9624 130.465L84.9921 130.576L78.9212 130.688L73.6373 130.8L69.028 130.912L65.0932 131.023L61.608 131.135L58.5726 131.247L55.8744 131.358L53.2887 131.47L50.8154 131.582L48.3421 131.693L45.7563 131.805L43.0582 131.917L40.0227 132.029H36.65H33.6146H28.1059H25.745H23.6089H21.5853H19.6741H17.7629H15.8517H13.9405L11.9169 131.917L9.78084 131.805L7.53237 131.693L5.05905 130.688L2.13604 130.576C1.9112 130.241 2.02362 130.018 1.79877 129.683C1.68635 129.348 1.57393 128.901 1.57393 128.566C1.68635 128.342 1.79877 128.231 1.79877 128.007V128.119H5.50875H8.76903L11.692 128.007L14.2778 127.896L16.5262 127.784L18.6623 127.672L20.5735 127.561L22.3723 127.449L24.171 127.337L25.9698 127.225L27.7686 127.114L29.6798 127.002L31.8158 126.89H34.0643H36.65H39.573L42.9457 127.002L45.7563 127.114L48.1172 127.225L50.3657 127.337L52.5017 127.449L54.6378 127.561L56.9987 127.672L59.6968 127.784L62.8447 127.896L66.5547 128.007L71.0516 128.119L76.4479 128.231L82.8561 128.342L90.5009 128.454L99.4947 128.566H109.95L109.051 130.241Z" fill="#306BF5"/>
        <path d="M8.99414 85.6734C9.33141 85.2266 9.55626 84.7797 10.0059 84.2212C9.66868 84.5563 9.33141 85.1149 8.99414 85.6734Z" fill="#306BF5"/>
        <path d="M16.751 156.044C17.4255 156.714 18.1001 157.273 18.7746 157.943C18.1001 157.161 17.2007 156.379 16.751 156.044Z" fill="#306BF5"/>
    </g>
    <defs>
        <clipPath id="clip0">
            <rect width="200" height="232" fill="white"/>
        </clipPath>
    </defs>
</svg>
